<svg width="41" height="36" viewBox="0 0 41 36" fill="none" xmlns="http://www.w3.org/2000/svg">
<g id="Group 55">
<g id="Group 54">
<path id="Vector" fill-rule="evenodd" clip-rule="evenodd" d="M38.14 10.4103C37.8014 10.2221 37.4308 10.0653 37.041 9.95235C36.9068 9.91471 36.7726 9.88335 36.6385 9.85198C34.1976 9.35644 31.8079 10.887 31.2009 13.2581C31.1498 13.4526 31.0986 13.6533 31.0348 13.8477C30.8878 14.3433 30.7153 14.8263 30.53 15.2968C27.3415 23.2632 18.4344 27.6729 9.89784 25.2265C9.53363 25.1199 9.1758 25.007 8.82437 24.8815C8.14706 24.6432 7.49532 24.3609 6.86914 24.0473C4.76056 22.9872 2.15998 23.6019 0.843716 25.5339C0.562572 25.9479 0.338935 26.4121 0.185584 26.9139C0.172804 26.9578 0.160027 27.0017 0.147247 27.0519C-0.402261 29.1157 0.626469 31.2798 2.56253 32.252C3.35484 32.6535 4.17911 33.0173 5.02254 33.3372C5.75096 33.6132 6.49216 33.8641 7.25892 34.0837C20.7474 37.9414 34.843 30.7779 39.533 17.9752C39.7183 17.4671 39.8908 16.9465 40.0441 16.4258C40.1336 16.1248 40.2167 15.8237 40.2933 15.5226C40.8045 13.5278 39.9483 11.4139 38.1273 10.404L38.14 10.4103Z" fill="#00D8FF"/>
<path id="Vector_2" fill-rule="evenodd" clip-rule="evenodd" d="M21.9931 0.593775C19.9292 -0.359686 17.9101 -0.15269 16.0443 1.12695C14.6706 2.06787 13.9741 3.44161 13.6163 5.0098C13.5076 5.48653 13.4629 5.96954 13.4246 6.45254C13.3862 6.45254 13.3735 6.45254 13.3735 6.45254C13.3223 6.40863 13.2712 6.37099 13.2265 6.32709C11.6035 4.9408 9.75693 4.2947 7.60362 4.78398C3.27145 5.7688 1.49511 10.7431 4.25544 14.143C5.24583 15.3599 6.53015 16.213 7.92948 16.903C9.34159 17.5993 10.8048 18.1513 12.3064 18.628C14.0124 19.1674 15.744 19.6254 17.5012 19.9704C18.5618 20.1774 19.4947 19.8825 20.2998 19.1737C20.7407 18.7911 20.9963 18.2767 21.271 17.7874C22.7151 15.2407 24.0122 12.6312 24.8556 9.82729C25.2454 8.5351 25.501 7.21782 25.4307 5.8629C25.3093 3.45415 24.2294 1.62878 21.9931 0.593775Z" fill="#2500FF"/>
</g>
</g>
</svg>
