<svg width="112" height="38" viewBox="0 0 112 38" fill="none" xmlns="http://www.w3.org/2000/svg">
<g clip-path="url(#clip0_1436_504)">
<path fill-rule="evenodd" clip-rule="evenodd" d="M39.2283 0.142494H34.3828C33.3807 0.142494 32.4523 0.991557 32.3403 2.0514L30.2093 22.5031C30.3538 15.9244 26.5368 9.74344 18.797 9.74344C15.1629 9.74344 12.6547 11.0705 10.9217 13.0328L12.0653 2.0514C12.1743 0.991557 11.4227 0.142494 10.3676 0.142494H5.57515C4.52294 0.142494 3.59157 0.991557 3.47957 2.0514L0.01051 35.3667C-0.0985426 36.4266 0.653034 37.2756 1.70819 37.2756H6.97515C7.76505 37.2756 8.46354 36.6403 8.54607 35.8447L8.67284 34.6245C9.99621 36.5869 12.2274 37.9139 15.8615 37.9139C23.6013 37.9139 28.709 31.733 29.9293 25.1988L28.8712 35.3697C28.7621 36.4295 29.5138 37.2786 30.5159 37.2786H35.3613C36.3634 37.2786 37.2919 36.4295 37.4039 35.3697L40.8729 2.05437C40.982 0.994526 40.2304 0.145464 39.2283 0.145464V0.142494ZM21.488 23.8569C21.1461 27.1463 18.7322 29.5866 15.1512 29.5866C11.9385 29.5866 9.68968 27.4105 10.061 23.8569C10.4354 20.2498 13.1381 18.0738 16.3507 18.0738C19.9318 18.0738 21.8387 20.5141 21.488 23.8569ZM80.0405 9.74641C72.4451 9.74641 65.7281 15.8353 64.8409 23.7292L66.0317 12.2906C66.1407 11.2308 65.3891 10.3817 64.334 10.3817H59.5416C58.5395 10.3817 57.611 11.2308 57.499 12.2906L56.1904 24.8633C55.875 27.8884 53.915 29.5302 51.4392 29.5302C48.9635 29.5302 47.3336 27.9923 47.6607 24.8633L48.9693 12.2906C49.0784 11.2308 48.3268 10.3817 47.2717 10.3817H42.4792C41.427 10.3817 40.4957 11.2308 40.3837 12.2906L38.8304 27.1967C38.2616 32.6622 40.8759 37.9139 47.5104 37.9139C50.9853 37.9139 53.4405 36.5869 55.1529 34.8383L55.0468 35.8477C54.9643 36.6433 55.5302 37.2786 56.267 37.2786H61.534C62.5862 37.2786 63.5176 36.4295 63.6296 35.3697L64.8144 23.9934C64.0186 32.2466 69.3622 37.9169 78.3723 37.9169C82.8493 37.9169 86.7133 36.2188 89.3011 33.6211C89.8994 32.9323 89.8464 31.923 89.1597 31.445L85.6523 29.2155C85.1601 28.8978 84.5205 28.9513 84.0018 29.3758C82.9112 30.2248 81.1959 31.0205 79.0915 31.0205C75.8258 31.0205 73.3942 29.5895 72.8253 26.4575H90.3622C91.3643 26.4575 92.2927 25.6084 92.4047 24.5486C93.6072 14.5231 87.5209 9.74641 80.0405 9.74641ZM73.4178 21.2592C74.5171 18.2875 76.9016 16.6428 79.6397 16.6428C82.59 16.6428 84.6001 18.0738 84.9538 21.2592H73.4207H73.4178Z" fill="#2500CF"/>
<path fill-rule="evenodd" clip-rule="evenodd" d="M110.911 26.1784C110.755 26.0894 110.584 26.0152 110.404 25.9617C110.342 25.9439 110.281 25.9291 110.219 25.9142C109.093 25.6797 107.99 26.4041 107.71 27.5262C107.687 27.6183 107.663 27.7133 107.634 27.8053C107.566 28.0398 107.486 28.2684 107.401 28.4911C105.93 32.2614 101.822 34.3484 97.884 33.1906C97.716 33.1402 97.5509 33.0867 97.3888 33.0273C97.0764 32.9145 96.7758 32.7809 96.4869 32.6325C95.5143 32.1308 94.3147 32.4217 93.7075 33.3361C93.5779 33.532 93.4747 33.7517 93.404 33.9892C93.3981 34.01 93.3922 34.0308 93.3863 34.0545C93.1328 35.0312 93.6073 36.0555 94.5004 36.5156C94.8659 36.7056 95.2461 36.8778 95.6351 37.0292C95.9711 37.1598 96.313 37.2786 96.6667 37.3825C102.889 39.2083 109.39 35.818 111.554 29.7587C111.639 29.5183 111.719 29.2719 111.79 29.0255C111.831 28.883 111.869 28.7405 111.905 28.598C112.14 27.6539 111.745 26.6534 110.905 26.1755L110.911 26.1784Z" fill="#00D8FF"/>
<path fill-rule="evenodd" clip-rule="evenodd" d="M103.463 21.5323C102.511 21.0811 101.58 21.1791 100.719 21.7847C100.086 22.23 99.7643 22.8802 99.5993 23.6223C99.5492 23.848 99.5285 24.0766 99.5108 24.3052C99.4932 24.3052 99.4873 24.3052 99.4873 24.3052C99.4637 24.2844 99.4401 24.2666 99.4195 24.2458C98.6708 23.5897 97.819 23.2839 96.8258 23.5155C94.8275 23.9816 94.0081 26.3358 95.2814 27.9448C95.7382 28.5208 96.3306 28.9245 96.9761 29.2511C97.6275 29.5806 98.3024 29.8419 98.995 30.0675C99.782 30.3228 100.581 30.5395 101.391 30.7028C101.881 30.8008 102.311 30.6613 102.682 30.3258C102.886 30.1447 103.003 29.9013 103.13 29.6697C103.796 28.4644 104.395 27.2294 104.784 25.9023C104.963 25.2908 105.081 24.6673 105.049 24.0261C104.993 22.8861 104.495 22.0222 103.463 21.5323Z" fill="#2500CF"/>
</g>
<defs>
<clipPath id="clip0_1436_504">
<rect width="112" height="38" fill="white"/>
</clipPath>
</defs>
</svg>
