<svg width="309" height="309" viewBox="0 0 309 309" fill="none" xmlns="http://www.w3.org/2000/svg">
<g clip-path="url(#clip0_889_22471)">
<rect width="309" height="309" fill="#2500CF"/>
<rect x="80" y="58" width="148" height="149" rx="74" fill="white"/>
<g clip-path="url(#clip1_889_22471)">
<path fill-rule="evenodd" clip-rule="evenodd" d="M201.175 147.543C200.651 146.827 200.038 146.164 199.333 145.56C199.09 145.35 198.839 145.158 198.591 144.975C194 141.662 187.608 142.642 184.081 147.061C183.787 147.423 183.491 147.792 183.179 148.146C182.402 149.051 181.588 149.91 180.75 150.73C166.556 164.513 143.898 165.469 128.546 152.381C127.893 151.822 127.263 151.244 126.659 150.657C125.49 149.522 124.407 148.324 123.41 147.08C120.052 142.888 114.08 141.749 109.519 144.592C108.537 145.204 107.638 145.967 106.847 146.887C106.774 146.969 106.707 147.053 106.639 147.138C103.529 150.971 103.606 156.467 106.69 160.328C107.952 161.907 109.31 163.435 110.75 164.908C111.991 166.169 113.295 167.386 114.67 168.557C138.928 189.245 174.953 187.315 196.876 164.775C197.75 163.879 198.593 162.954 199.418 161.991C199.889 161.444 200.348 160.89 200.796 160.332C203.758 156.619 203.991 151.376 201.189 147.542L201.175 147.543Z" fill="#00D8FF"/>
<path fill-rule="evenodd" clip-rule="evenodd" d="M144.529 111.298C145.832 107.979 145.509 104.874 143.161 102.143C141.001 99.6288 138.191 98.7104 134.929 99.3252C132.537 99.7784 130.769 101.218 129.34 103.121C128.909 103.7 128.553 104.325 128.209 104.956C128.159 104.934 128.143 104.927 128.137 104.92C128.098 104.833 128.053 104.749 128.014 104.662C126.694 101.827 124.643 99.8575 121.483 99.2367C115.127 97.9889 109.735 103.646 111.341 109.873C111.915 112.104 113.106 114.019 114.549 115.785C115.999 117.564 117.612 119.186 119.322 120.717C121.263 122.459 123.278 124.109 125.408 125.618C126.689 126.527 128.114 126.687 129.613 126.211C130.43 125.952 131.081 125.417 131.752 124.919C135.217 122.343 138.532 119.595 141.354 116.309C142.654 114.793 143.794 113.173 144.533 111.3L144.529 111.298Z" fill="#00D8FF"/>
<path fill-rule="evenodd" clip-rule="evenodd" d="M196.529 113.298C197.831 109.979 197.508 106.874 195.16 104.143C193 101.629 190.19 100.711 186.928 101.325C184.536 101.778 182.768 103.218 181.339 105.121C180.908 105.699 180.552 106.325 180.208 106.956C180.158 106.933 180.143 106.926 180.137 106.919C180.098 106.833 180.053 106.748 180.013 106.662C178.694 103.826 176.643 101.857 173.482 101.236C167.126 99.9883 161.735 105.644 163.34 111.872C163.915 114.102 165.106 116.017 166.548 117.783C167.999 119.562 169.612 121.184 171.322 122.716C173.264 124.457 175.279 126.107 177.408 127.616C178.689 128.525 180.114 128.685 181.614 128.209C182.43 127.95 183.081 127.415 183.753 126.917C187.217 124.341 190.533 121.594 193.354 118.308C194.654 116.792 195.794 115.173 196.533 113.3L196.529 113.298Z" fill="#00D8FF"/>
</g>
<path d="M32 314C32 265.951 70.9512 227 119 227H189C237.049 227 276 265.951 276 314H32Z" fill="white"/>
</g>
<defs>
<clipPath id="clip0_889_22471">
<rect width="309" height="309" fill="white"/>
</clipPath>
<clipPath id="clip1_889_22471">
<rect x="101" y="78" width="106" height="109" fill="white"/>
</clipPath>
</defs>
</svg>
